# xmcd
#
# Track frame offsets:
# 150
# 30576
# 45757
# 63710
# 76474
# 97538
# 117649
# 140420
# 154548
# 173463
# 187159
# 202167
#
# Disc length: 3045 seconds
#
#
# Revision: 0
# Processed by: cddbd v1.5.1PL2 Copyright (c) Steve Scherf et al.
# Submitted via: FreeRIP 2.945 
#
DISCID=980be30c
DTITLE=Various Artist - New Orleans - The Living Legends
DYEAR=2006
DGENRE=Blues
TTITLE0=When The Saints Go Marching In - "Sweet Emma" Barrett" The Bell Gal" and Her Dixieland Boys
TTITLE1=The Entertainer Rag - Peter Bocage with His Love - Jiles Ragtime Orchestra
TTITLE2=We Shall Walk Through The Streets Of The City - Percy Humphrey's Crescent City Joy Makers
TTITLE3=Down By The Riverside - The Louis Cottrell Trio
TTITLE4=Mack The Knife - Kid Thomas and His Algiers Stompers
TTITLE5=Purple Rose of Cairo - Peter Bocage with Creole Serenaders
TTITLE6=St. Street Blues - "Sweet Emma" Barrett" The Bell Gal" and Her Dixieland Boys
TTITLE7=Frogs Legs Rag - Love-Jiles Ragtime Orchestra
TTITLE8=Rip 'Em Up Joe - Percy Humphrey's Crescent City Joy Makers
TTITLE9=Bourbon Street Parade - The Louis Cottrell Trio
TTITLE10=That's a Plenty - Kid Thomas and His Algiers Stompers
TTITLE11=Mama's Gone - Peter Bocage with Creole Serenaders
EXTD=
EXTT0=
EXTT1=
EXTT2=
EXTT3=
EXTT4=
EXTT5=
EXTT6=
EXTT7=
EXTT8=
EXTT9=
EXTT10=
EXTT11=
PLAYORDER=
